<svg width="654" height="216" viewBox="0 0 654 216" fill="none" xmlns="http://www.w3.org/2000/svg">
<path d="M41.6914 108.27C45.8164 109.262 45.8164 113.387 45.8164 113.387V123.125H0.453125V113.387C0.453125 109.262 4.57812 108.27 4.57812 108.27H4.90625C5.23828 108.105 5.56641 108.105 5.56641 108.105C6.39063 107.941 8.04297 107.609 8.04297 107.609L12.9883 106.785V54.7891C12.3281 54.625 11.1758 54.4609 11.1758 54.4609C10.0195 54.2969 9.35938 54.1289 9.35938 54.1289C8.69922 53.9648 8.04297 53.9648 8.04297 53.9648C7.38281 53.8008 6.55469 53.6367 6.55469 53.6367C5.73047 53.4687 5.56641 53.4688 5.56641 53.4688C5.23828 53.4688 4.90625 53.4688 4.90625 53.4688L4.57812 53.3047C0.453125 52.3164 0.453125 48.1875 0.453125 48.1875V38.4492H33.2812V106.785C33.9414 106.949 35.0938 107.113 35.0938 107.113C36.25 107.277 36.9102 107.445 36.9102 107.445C37.5703 107.609 38.2266 107.609 38.2266 107.609C38.8867 107.609 39.5469 107.773 39.5469 107.773C40.207 107.941 40.7031 108.105 40.7031 108.105C41.1992 108.27 41.3633 108.27 41.3633 108.27H41.6914ZM36.4141 13.6914C36.4141 16.0039 35.2578 18.6445 35.2578 18.6445C34.2695 20.9531 32.4531 22.7695 32.4531 22.7695C30.4766 24.75 28.332 25.5742 28.332 25.5742C25.8555 26.5664 23.2188 26.5664 23.2188 26.5664C20.5781 26.5664 18.1055 25.5742 18.1055 25.5742C16.125 24.75 14.1445 22.7695 14.1445 22.7695C12.3281 20.9531 11.3398 18.6445 11.3398 18.6445C10.3516 16.4961 10.3516 13.6914 10.3516 13.6914C10.3516 11.0508 11.3398 8.57422 11.3398 8.57422C12.1641 6.42969 14.1445 4.44922 14.1445 4.44922C15.9609 2.63281 18.1055 1.80859 18.1055 1.80859C20.9062 0.652344 23.2188 0.652344 23.2188 0.652344C25.3633 0.652344 28.332 1.80859 28.332 1.80859C30.8047 2.79687 32.4531 4.44922 32.4531 4.44922C34.4336 6.42969 35.2578 8.57422 35.2578 8.57422C36.4141 11.5469 36.4141 13.6914 36.4141 13.6914Z" fill="white"/>
<path d="M146.441 108.27C150.566 109.262 150.566 113.387 150.566 113.387V123.125H117.738V69.3164C117.738 61.7227 114.109 57.2656 114.109 57.2656C110.645 52.9766 103.387 52.9766 103.387 52.9766C98.1094 52.9766 93.4883 55.4531 93.4883 55.4531C88.5391 58.0938 84.7461 61.8867 84.7461 61.8867V106.785C85.5703 106.949 87.2227 107.113 87.2227 107.113C88.8711 107.277 89.5312 107.609 89.5312 107.609C91.1797 107.941 92.0039 108.105 92.0039 108.105C92.5 108.27 92.9961 108.27 92.9961 108.27C97.1172 109.262 97.1172 113.387 97.1172 113.387V123.125H51.9219V113.387C51.9219 109.262 56.043 108.27 56.043 108.27H56.375C56.7031 108.105 57.0352 108.105 57.0352 108.105C57.8594 107.941 59.5078 107.609 59.5078 107.609C60.168 107.445 61.8164 107.277 61.8164 107.277C63.4688 107.113 64.293 106.785 64.293 106.785V54.7891C63.4687 54.625 61.8164 54.4609 61.8164 54.4609C60.168 54.2969 59.5078 53.9648 59.5078 53.9648C58.8477 53.6367 58.0234 53.6367 58.0234 53.6367C57.1992 53.6367 57.0352 53.4688 57.0352 53.4688C56.5391 53.3047 56.043 53.3047 56.043 53.3047C51.9219 52.3164 51.9219 48.1875 51.9219 48.1875V38.4492H76.8281C80.6211 38.4492 81.9414 42.2461 81.9414 42.2461L83.4258 48.8477C85.7383 46.207 88.707 44.0625 88.707 44.0625C91.0156 42.2461 94.8086 40.4297 94.8086 40.4297C99.0977 38.4492 101.574 37.957 101.574 37.957C105.695 37.1289 109.492 37.1289 109.492 37.1289C116.75 37.1289 121.863 39.4414 121.863 39.4414C126.645 41.4219 130.77 46.043 130.77 46.043C134.234 50.168 136.215 56.2773 136.215 56.2773C138.027 61.7227 138.027 69.3164 138.027 69.3164V106.785L142.977 107.609C143.473 107.609 144.297 107.773 144.297 107.773C145.121 107.941 145.453 108.105 145.453 108.105C145.781 108.105 146.109 108.27 146.109 108.27H146.441Z" fill="white"/>
<path d="M246.902 38.4492H252.344V48.1875C252.344 52.3164 248.219 53.3047 248.219 53.3047C247.727 53.3047 247.23 53.4688 247.23 53.4688C246.734 53.6367 245.086 53.9648 245.086 53.9648C243.437 54.2969 240.469 54.7891 240.469 54.7891L213.25 123.125H194.773L167.555 54.7891C165.246 54.2969 163.598 53.9648 163.598 53.9648C161.945 53.6367 161.453 53.6367 161.453 53.6367C160.957 53.6367 160.629 53.4688 160.629 53.4688C160.297 53.3047 159.805 53.3047 159.805 53.3047C155.68 52.3164 155.68 48.1875 155.68 48.1875V38.4492H196.918V48.1875C196.918 52.3164 192.793 53.3047 192.793 53.3047C189.824 53.8008 188.176 54.1289 188.176 54.1289L200.219 87.4727C201.043 89.7813 202.527 95.2305 202.527 95.2305C203.684 99.6875 204.34 102.824 204.34 102.824C205.496 97.2109 205.992 95.2305 205.992 95.2305C206.98 91.2695 208.465 87.4727 208.465 87.4727L220.672 54.2969C218.199 53.9648 216.715 53.6367 216.715 53.6367L215.23 53.3047C211.105 52.3164 211.105 48.1875 211.105 48.1875V38.4492H246.902Z" fill="white"/>
<path d="M298.039 37.1289C305.957 37.1289 312.719 39.6055 312.719 39.6055C318.988 41.918 324.266 47.1992 324.266 47.1992C329.051 51.9844 331.855 59.2461 331.855 59.2461C334.66 66.6758 334.66 75.4219 334.66 75.4219C334.66 77.4023 334.328 79.3828 334.328 79.3828C334 81.1992 333.668 81.6953 333.668 81.6953C333.34 82.5195 332.184 83.0156 332.184 83.0156C331.523 83.3477 329.875 83.3477 329.875 83.3477H277.582C278.574 96.3867 284.676 102.492 284.676 102.492C290.781 108.602 300.844 108.602 300.844 108.602C305.957 108.602 309.254 107.445 309.254 107.445C312.883 106.289 315.523 104.805 315.523 104.805C316.348 104.473 317.996 103.648 317.996 103.648C319.648 102.824 320.309 102.328 320.309 102.328C322.121 101.172 324.102 101.172 324.102 101.172C325.422 101.172 326.41 101.668 326.41 101.668C327.234 101.996 327.895 102.988 327.895 102.988L333.832 110.414C330.039 114.707 326.246 117.184 326.246 117.184C321.793 119.988 317.504 121.473 317.504 121.473C313.379 122.793 308.102 123.621 308.102 123.621C303.977 124.281 298.863 124.281 298.863 124.281C289.789 124.281 282.531 121.473 282.531 121.473C275.273 118.668 269.336 112.727 269.336 112.727C263.727 107.113 260.426 98.5312 260.426 98.5312C257.293 90.2773 257.293 78.8906 257.293 78.8906C257.293 70.6367 260.098 62.7148 260.098 62.7148C262.738 55.2852 268.18 49.3438 268.18 49.3438C273.293 43.7305 280.883 40.4297 280.883 40.4297C288.469 37.1289 298.039 37.1289 298.039 37.1289ZM298.367 51.6562C289.625 51.6562 284.512 56.7734 284.512 56.7734C279.562 61.7227 278.078 70.9648 278.078 70.9648H316.348C316.348 67.6641 315.195 63.5391 315.195 63.5391C314.203 60.4023 311.895 57.4336 311.895 57.4336C309.75 54.7891 306.285 53.3047 306.285 53.3047C302.492 51.6562 298.367 51.6562 298.367 51.6562Z" fill="white"/>
<path d="M434.953 108.27C439.078 109.262 439.078 113.387 439.078 113.387V123.125H406.25V69.3164C406.25 61.7227 402.621 57.2656 402.621 57.2656C399.156 52.9766 391.898 52.9766 391.898 52.9766C386.621 52.9766 382 55.4531 382 55.4531C377.055 58.0938 373.258 61.8867 373.258 61.8867V106.785C374.082 106.949 375.734 107.113 375.734 107.113C377.383 107.277 378.043 107.609 378.043 107.609C379.691 107.941 380.516 108.105 380.516 108.105C381.012 108.27 381.508 108.27 381.508 108.27C385.629 109.262 385.629 113.387 385.629 113.387V123.125H340.434V113.387C340.434 109.262 344.555 108.27 344.555 108.27H344.887C345.215 108.105 345.547 108.105 345.547 108.105C346.371 107.941 348.02 107.609 348.02 107.609C348.68 107.445 350.328 107.277 350.328 107.277C351.98 107.113 352.805 106.785 352.805 106.785V54.7891C351.98 54.625 350.328 54.4609 350.328 54.4609C348.68 54.2969 348.02 53.9648 348.02 53.9648C347.359 53.6367 346.535 53.6367 346.535 53.6367C345.711 53.6367 345.547 53.4688 345.547 53.4688C345.051 53.3047 344.555 53.3047 344.555 53.3047C340.434 52.3164 340.434 48.1875 340.434 48.1875V38.4492H365.34C369.137 38.4492 370.453 42.2461 370.453 42.2461L371.938 48.8477C374.25 46.207 377.219 44.0625 377.219 44.0625C379.527 42.2461 383.32 40.4297 383.32 40.4297C387.609 38.4492 390.086 37.957 390.086 37.957C394.207 37.1289 398.004 37.1289 398.004 37.1289C405.262 37.1289 410.375 39.4414 410.375 39.4414C415.16 41.4219 419.281 46.043 419.281 46.043C422.746 50.168 424.727 56.2773 424.727 56.2773C426.539 61.7227 426.539 69.3164 426.539 69.3164V106.785L431.488 107.609C431.984 107.609 432.809 107.773 432.809 107.773C433.633 107.941 433.965 108.105 433.965 108.105C434.293 108.105 434.625 108.27 434.625 108.27H434.953Z" fill="white"/>
<path d="M479.656 124.445C468.605 124.445 462.668 118.172 462.668 118.172C456.727 111.902 456.727 101.008 456.727 101.008V53.8008H448.148C446.832 53.8008 445.344 52.6445 445.344 52.6445C444.027 51.6563 444.027 49.5078 444.027 49.5078V41.2578L457.719 39.1094L462.008 16.0039C462.172 14.5156 463.492 13.5273 463.492 13.5273C464.812 12.5352 466.625 12.5352 466.625 12.5352H477.184V39.2773H499.453V53.8008H477.184V99.6875C477.184 103.648 479.16 105.793 479.16 105.793C481.141 107.941 484.441 107.941 484.441 107.941C486.75 107.941 487.574 107.609 487.574 107.609C488.398 107.277 489.719 106.617 489.719 106.617C491.039 105.957 491.535 105.629 491.535 105.629C492.027 105.297 492.855 105.297 492.855 105.297C494.172 105.297 494.504 105.629 494.504 105.629C495.164 106.289 495.656 106.949 495.656 106.949L501.762 116.852C497.473 120.32 491.535 122.465 491.535 122.465C485.926 124.445 479.656 124.445 479.656 124.445Z" fill="white"/>
<path d="M582.59 108.105C586.715 109.094 586.715 113.223 586.715 113.223V122.961H567.25C564.117 122.961 562.633 122.133 562.633 122.133C560.98 121.473 560.156 118.504 560.156 118.504L558.344 112.562C555.043 115.695 552.074 117.68 552.074 117.68C549.766 119.328 545.641 121.309 545.641 121.309C542.672 122.629 538.711 123.453 538.711 123.453C534.59 124.281 530.465 124.281 530.465 124.281C525.02 124.281 520.566 122.793 520.566 122.793C515.781 121.145 512.812 118.504 512.812 118.504C509.348 115.367 507.699 111.242 507.699 111.242C505.887 106.785 505.887 101.336 505.887 101.336C505.887 96.3867 508.359 91.7656 508.359 91.7656C510.836 87.1406 516.773 83.3477 516.773 83.3477C523.039 79.3828 532.277 77.0742 532.277 77.0742C542.012 74.5977 556.527 74.5977 556.527 74.5977V69.6445C556.527 61.3945 552.898 56.9375 552.898 56.9375C549.434 52.8086 542.508 52.8086 542.508 52.8086C537.227 52.8086 534.258 53.9648 534.258 53.9648C530.465 55.4531 528.484 56.6055 528.484 56.6055C527.66 57.1016 526.176 57.7617 526.176 57.7617C524.691 58.4219 524.031 59.082 524.031 59.082C522.215 60.2383 519.578 60.2383 519.578 60.2383C517.434 60.2383 515.949 59.2461 515.949 59.2461C514.957 58.5859 513.637 56.6055 513.637 56.6055L509.844 50.168C524.691 36.6328 544.98 36.6328 544.98 36.6328C552.402 36.6328 558.344 39.1094 558.344 39.1094C564.117 41.5859 568.074 45.8789 568.074 45.8789C572.527 50.9961 574.344 56.2773 574.344 56.2773C576.324 62.2187 576.324 69.4805 576.324 69.4805V106.949C577.148 107.113 578.633 107.277 578.633 107.277C580.117 107.445 580.777 107.773 580.777 107.773C581.27 107.941 581.93 107.941 581.93 107.941C582.59 108.105 582.59 108.105 582.59 108.105ZM556.527 101.172V86.9766C547.289 86.9766 541.68 88.1328 541.68 88.1328C535.578 89.4531 531.949 91.1055 531.949 91.1055C528.32 92.7539 526.836 95.0664 526.836 95.0664C525.352 97.375 525.352 100.184 525.352 100.184C525.352 105.793 528.484 107.941 528.484 107.941C531.785 110.25 536.734 110.25 536.734 110.25C539.703 110.25 542.508 109.754 542.508 109.754C545.309 109.262 547.621 107.941 547.621 107.941C550.59 106.289 552.074 105.133 552.074 105.133C554.219 103.316 556.527 101.172 556.527 101.172Z" fill="white"/>
<path d="M652.039 87.4727C653.852 91.4336 653.852 96.2188 653.852 96.2188C653.852 102.164 651.543 107.609 651.543 107.609C649.398 112.891 645.109 116.523 645.109 116.523C640.656 120.484 634.555 122.301 634.555 122.301C628.613 124.445 620.035 124.445 620.035 124.445C605.355 124.445 593.148 119.824 593.148 119.824V95.8906H602.715C605.684 95.8906 606.512 99.0273 606.512 99.0273C606.84 100.844 607.664 108.766 607.664 108.766C612.117 110.086 621.027 110.086 621.027 110.086C624.492 110.086 627.293 109.262 627.293 109.262C630.098 108.27 631.582 106.949 631.582 106.949C633.563 105.297 634.059 103.812 634.059 103.812C634.719 101.996 634.719 99.8516 634.719 99.8516C634.719 96.8789 633.066 95.0664 633.066 95.0664C631.582 93.4141 628.285 91.7656 628.285 91.7656C625.148 90.2773 621.688 89.2891 621.688 89.2891C619.211 88.4609 613.934 86.8125 613.934 86.8125C611.293 85.9883 606.344 83.6758 606.344 83.6758C602.387 81.8594 599.582 79.2188 599.582 79.2188C596.613 76.5781 594.961 72.6172 594.961 72.6172C593.148 68.4922 593.148 63.043 593.148 63.043C593.148 57.7617 595.129 53.1406 595.129 53.1406C597.105 48.5195 601.23 44.8867 601.23 44.8867C605.355 41.2578 611.293 39.2773 611.293 39.2773C617.727 37.1289 624.984 37.1289 624.984 37.1289C635.211 37.1289 649.73 41.5859 649.73 41.5859H649.562V65.5195H640.16C637.191 65.5195 636.367 62.3828 636.367 62.3828C635.871 60.2383 635.211 53.1406 635.211 53.1406C631.418 51.9844 625.316 51.9844 625.316 51.9844C619.375 51.9844 615.914 54.4609 615.914 54.4609C612.449 56.9375 612.449 61.2266 612.449 61.2266C612.449 63.7031 614.262 65.8516 614.262 65.8516C615.582 67.3359 618.883 68.9844 618.883 68.9844C622.676 70.8008 625.48 71.625 625.48 71.625C626.801 71.957 633.066 73.9375 633.066 73.9375C636.203 74.9297 640.82 77.0742 640.82 77.0742C644.781 78.8906 647.418 81.3672 647.418 81.3672C650.391 83.8398 652.039 87.4727 652.039 87.4727Z" fill="white"/>
<path d="M20.457 191.301H25.5625V215.422H20.457V191.301ZM30.6641 191.301H35.7656V215.422H30.6641V191.301ZM40.8672 191.301H45.9688V215.422H40.8672V191.301ZM51.0703 191.301H56.1719V215.422H51.0703V191.301ZM61.2773 191.301H66.3789V215.422H61.2773V191.301ZM71.4805 191.301H76.582V215.422H71.4805V191.301ZM81.6836 191.301H86.7891V215.422H81.6836V191.301ZM91.8906 191.301H96.9922V215.422H91.8906V191.301ZM102.094 191.301H107.195V215.422H102.094V191.301ZM112.297 191.301H117.402V215.422H112.297V191.301ZM122.504 191.301H127.605V215.422H122.504V191.301ZM132.707 191.301H137.809V215.422H132.707V191.301ZM142.91 191.301H148.016V215.422H142.91V191.301ZM153.117 191.301H158.219V215.422H153.117V191.301ZM163.32 191.301H168.422V215.422H163.32V191.301ZM173.523 191.301H178.629V215.422H173.523V191.301ZM10.2539 191.301H15.3555V215.422H10.2539V191.301Z" fill="white"/>
</svg>
